{
  "accessors": [
    {
      "bufferView": 2,
      "componentType": 5126,
      "count": 6552,
      "max": [
        1.0573309659957886,
        1.780696988105774,
        1.3528634309768677
      ],
      "min": [
        -0.9397726058959961,
        -1.0313674211502075,
        -2.913809299468994
      ],
      "type": "VEC3"
    },
    {
      "bufferView": 2,
      "byteOffset": 78624,
      "componentType": 5126,
      "count": 6552,
      "max": [
        0.9988948702812195,
        0.9996901154518127,
        1.0
      ],
      "min": [
        -0.9993469715118408,
        -0.9988821148872375,
        -1.0
      ],
      "type": "VEC3"
    },
    {
      "bufferView": 1,
      "componentType": 5126,
      "count": 6552,
      "max": [
        2.6293535232543945,
        2.623316526412964
      ],
      "min": [
        -1.6241929531097412,
        -1.6296532154083252
      ],
      "type": "VEC2"
    },
    {
      "bufferView": 1,
      "byteOffset": 52416,
      "componentType": 5126,
      "count": 6552,
      "max": [
        0.0,
        1.0
      ],
      "min": [
        0.0,
        1.0
      ],
      "type": "VEC2"
    },
    {
      "bufferView": 1,
      "byteOffset": 104832,
      "componentType": 5126,
      "count": 6552,
      "max": [
        2.6293535232543945,
        2.623316526412964
      ],
      "min": [
        -1.6241929531097412,
        -1.6296532154083252
      ],
      "type": "VEC2"
    },
    {
      "bufferView": 0,
      "componentType": 5125,
      "count": 28644,
      "type": "SCALAR"
    },
    {
      "bufferView": 2,
      "byteOffset": 157248,
      "componentType": 5126,
      "count": 2328,
      "max": [
        18.064748764038086,
        30.052213668823242,
        1.000000238418579
      ],
      "min": [
        -9.913448333740234,
        -0.98447585105896,
        -2.2675933837890625
      ],
      "type": "VEC3"
    },
    {
      "bufferView": 2,
      "byteOffset": 185184,
      "componentType": 5126,
      "count": 2328,
      "max": [
        1.0,
        0.999992847442627,
        1.0
      ],
      "min": [
        -0.9999655485153198,
        -0.9999935626983643,
        -1.0
      ],
      "type": "VEC3"
    },
    {
      "bufferView": 1,
      "byteOffset": 157248,
      "componentType": 5126,
      "count": 2328,
      "max": [
        17.249530792236328,
        8.670453071594238
      ],
      "min": [
        -8.181351661682129,
        -19.540456771850586
      ],
      "type": "VEC2"
    },
    {
      "bufferView": 1,
      "byteOffset": 175872,
      "componentType": 5126,
      "count": 2328,
      "max": [
        12.01704216003418,
        6.118035316467285
      ],
      "min": [
        -5.46933126449585,
        -13.279894828796387
      ],
      "type": "VEC2"
    },
    {
      "bufferView": 1,
      "byteOffset": 194496,
      "componentType": 5126,
      "count": 2328,
      "max": [
        17.249530792236328,
        8.670453071594238
      ],
      "min": [
        -8.181351661682129,
        -19.540456771850586
      ],
      "type": "VEC2"
    },
    {
      "bufferView": 1,
      "byteOffset": 213120,
      "componentType": 5126,
      "count": 2328,
      "max": [
        17.249530792236328,
        8.670453071594238
      ],
      "min": [
        -8.181351661682129,
        -19.540456771850586
      ],
      "type": "VEC2"
    },
    {
      "bufferView": 1,
      "byteOffset": 231744,
      "componentType": 5126,
      "count": 2328,
      "max": [
        17.249530792236328,
        8.670453071594238
      ],
      "min": [
        -8.181351661682129,
        -19.540456771850586
      ],
      "type": "VEC2"
    },
    {
      "bufferView": 0,
      "byteOffset": 114576,
      "componentType": 5125,
      "count": 6048,
      "type": "SCALAR"
    },
    {
      "bufferView": 2,
      "byteOffset": 213120,
      "componentType": 5126,
      "count": 48,
      "max": [
        1.0,
        1.0,
        1.0
      ],
      "min": [
        -1.0,
        -1.0,
        -1.0
      ],
      "type": "VEC3"
    },
    {
      "bufferView": 2,
      "byteOffset": 213696,
      "componentType": 5126,
      "count": 48,
      "max": [
        0.9238767623901367,
        0.9238767623901367,
        1.0
      ],
      "min": [
        -0.9238767623901367,
        -0.9238767623901367,
        -1.0
      ],
      "type": "VEC3"
    },
    {
      "bufferView": 1,
      "byteOffset": 250368,
      "componentType": 5126,
      "count": 48,
      "max": [
        0.875,
        1.0
      ],
      "min": [
        0.125,
        0.0
      ],
      "type": "VEC2"
    },
    {
      "bufferView": 0,
      "byteOffset": 138768,
      "componentType": 5125,
      "count": 84,
      "type": "SCALAR"
    },
    {
      "bufferView": 2,
      "byteOffset": 214272,
      "componentType": 5126,
      "count": 48,
      "max": [
        1.0,
        1.0,
        1.0
      ],
      "min": [
        -1.0,
        -1.0,
        -1.0
      ],
      "type": "VEC3"
    },
    {
      "bufferView": 2,
      "byteOffset": 214848,
      "componentType": 5126,
      "count": 48,
      "max": [
        0.9238767623901367,
        0.9238767623901367,
        1.0
      ],
      "min": [
        -0.9238767623901367,
        -0.9238767623901367,
        -1.0
      ],
      "type": "VEC3"
    },
    {
      "bufferView": 1,
      "byteOffset": 250752,
      "componentType": 5126,
      "count": 48,
      "max": [
        0.875,
        1.0
      ],
      "min": [
        0.125,
        0.0
      ],
      "type": "VEC2"
    },
    {
      "bufferView": 0,
      "byteOffset": 139104,
      "componentType": 5125,
      "count": 84,
      "type": "SCALAR"
    },
    {
      "bufferView": 2,
      "byteOffset": 215424,
      "componentType": 5126,
      "count": 48,
      "max": [
        1.0,
        1.0,
        1.0
      ],
      "min": [
        -1.0,
        -1.0,
        -1.0
      ],
      "type": "VEC3"
    },
    {
      "bufferView": 2,
      "byteOffset": 216000,
      "componentType": 5126,
      "count": 48,
      "max": [
        0.9238767623901367,
        0.9238767623901367,
        1.0
      ],
      "min": [
        -0.9238767623901367,
        -0.9238767623901367,
        -1.0
      ],
      "type": "VEC3"
    },
    {
      "bufferView": 1,
      "byteOffset": 251136,
      "componentType": 5126,
      "count": 48,
      "max": [
        0.875,
        1.0
      ],
      "min": [
        0.125,
        0.0
      ],
      "type": "VEC2"
    },
    {
      "bufferView": 0,
      "byteOffset": 139440,
      "componentType": 5125,
      "count": 84,
      "type": "SCALAR"
    },
    {
      "bufferView": 2,
      "byteOffset": 216576,
      "componentType": 5126,
      "count": 48,
      "max": [
        1.0,
        1.0,
        1.0
      ],
      "min": [
        -1.0,
        -1.0,
        -1.0
      ],
      "type": "VEC3"
    },
    {
      "bufferView": 2,
      "byteOffset": 217152,
      "componentType": 5126,
      "count": 48,
      "max": [
        0.9238767623901367,
        0.9238767623901367,
        1.0
      ],
      "min": [
        -0.9238767623901367,
        -0.9238767623901367,
        -1.0
      ],
      "type": "VEC3"
    },
    {
      "bufferView": 1,
      "byteOffset": 251520,
      "componentType": 5126,
      "count": 48,
      "max": [
        0.875,
        1.0
      ],
      "min": [
        0.125,
        0.0
      ],
      "type": "VEC2"
    },
    {
      "bufferView": 0,
      "byteOffset": 139776,
      "componentType": 5125,
      "count": 84,
      "type": "SCALAR"
    }
  ],
  "asset": {
    "extras": {
      "author": "Yağız Solmaz (https://sketchfab.com/yagiz.slz)",
      "license": "SKETCHFAB Standard (https://sketchfab.com/licenses)",
      "source": "https://sketchfab.com/3d-models/bank-waiting-chair-2734e56f64464a4d95c3b167a7f37bbe",
      "title": "Bank / Waiting Chair"
    },
    "generator": "Sketchfab-16.65.0",
    "version": "2.0"
  },
  "bufferViews": [
    {
      "buffer": 0,
      "byteLength": 140112,
      "name": "floatBufferViews",
      "target": 34963
    },
    {
      "buffer": 0,
      "byteLength": 251904,
      "byteOffset": 140112,
      "byteStride": 8,
      "name": "floatBufferViews",
      "target": 34962
    },
    {
      "buffer": 0,
      "byteLength": 217728,
      "byteOffset": 392016,
      "byteStride": 12,
      "name": "floatBufferViews",
      "target": 34962
    }
  ],
  "buffers": [
    {
      "byteLength": 609744,
      "uri": "scene.bin"
    }
  ],
  "extensionsUsed": [
    "KHR_texture_transform",
    "KHR_materials_specular"
  ],
  "images": [
    {
      "uri": "textures/Wood.144_baseColor.jpeg"
    },
    {
      "uri": "textures/Wood.144_metallicRoughness.png"
    },
    {
      "uri": "textures/Wood.144_specularf0.png"
    },
    {
      "uri": "textures/Bois_clair_metallicRoughness.png"
    }
  ],
  "materials": [
    {
      "doubleSided": true,
      "extensions": {
        "KHR_materials_specular": {
          "specularColorFactor": [
            1.0,
            1.0,
            1.0
          ],
          "specularFactor": 1.0,
          "specularTexture": {
            "index": 2,
            "texCoord": 1
          }
        }
      },
      "name": "Wood.144",
      "pbrMetallicRoughness": {
        "baseColorFactor": [
          0.18133388596993819,
          0.18133388596993819,
          0.18133388596993819,
          1.0
        ],
        "baseColorTexture": {
          "index": 0
        },
        "metallicFactor": 0.010666699174702246,
        "metallicRoughnessTexture": {
          "extensions": {
            "KHR_texture_transform": {
              "offset": [
                0.377841,
                0.0741293
              ],
              "rotation": -0.387463
            }
          },
          "index": 1
        }
      }
    },
    {
      "doubleSided": true,
      "name": "Bois_clair",
      "pbrMetallicRoughness": {
        "baseColorTexture": {
          "extensions": {
            "KHR_texture_transform": {
              "offset": [
                -0.980955,
                1.19423
              ],
              "rotation": 1.76627
            }
          },
          "index": 3
        },
        "metallicFactor": 0.0,
        "metallicRoughnessTexture": {
          "extensions": {
            "KHR_texture_transform": {
              "offset": [
                -0.980955,
                1.19423
              ],
              "rotation": 1.76627
            }
          },
          "index": 4
        }
      }
    },
    {
      "doubleSided": true,
      "name": "Material",
      "pbrMetallicRoughness": {
        "baseColorFactor": [
          0.0132856,
          0.0132856,
          0.0132856,
          1.0
        ],
        "metallicFactor": 0.0
      }
    }
  ],
  "meshes": [
    {
      "name": "Object_0",
      "primitives": [
        {
          "attributes": {
            "NORMAL": 1,
            "POSITION": 0,
            "TEXCOORD_0": 2,
            "TEXCOORD_1": 3,
            "TEXCOORD_2": 4
          },
          "indices": 5,
          "material": 0,
          "mode": 4
        }
      ]
    },
    {
      "name": "Object_1",
      "primitives": [
        {
          "attributes": {
            "NORMAL": 7,
            "POSITION": 6,
            "TEXCOORD_0": 8,
            "TEXCOORD_1": 9,
            "TEXCOORD_2": 10,
            "TEXCOORD_3": 11,
            "TEXCOORD_4": 12
          },
          "indices": 13,
          "material": 1,
          "mode": 4
        }
      ]
    },
    {
      "name": "Object_2",
      "primitives": [
        {
          "attributes": {
            "NORMAL": 15,
            "POSITION": 14,
            "TEXCOORD_0": 16
          },
          "indices": 17,
          "material": 2,
          "mode": 4
        }
      ]
    },
    {
      "name": "Object_3",
      "primitives": [
        {
          "attributes": {
            "NORMAL": 19,
            "POSITION": 18,
            "TEXCOORD_0": 20
          },
          "indices": 21,
          "material": 2,
          "mode": 4
        }
      ]
    },
    {
      "name": "Object_4",
      "primitives": [
        {
          "attributes": {
            "NORMAL": 23,
            "POSITION": 22,
            "TEXCOORD_0": 24
          },
          "indices": 25,
          "material": 2,
          "mode": 4
        }
      ]
    },
    {
      "name": "Object_5",
      "primitives": [
        {
          "attributes": {
            "NORMAL": 27,
            "POSITION": 26,
            "TEXCOORD_0": 28
          },
          "indices": 29,
          "material": 2,
          "mode": 4
        }
      ]
    }
  ],
  "nodes": [
    {
      "children": [
        1
      ],
      "matrix": [
        0.43408554792404175,
        0.0,
        0.0,
        0.0,
        0.0,
        9.63863539924596e-17,
        -0.43408554792404175,
        0.0,
        0.0,
        0.43408554792404175,
        9.63863539924596e-17,
        0.0,
        0.0,
        0.0,
        0.0,
        1.0
      ],
      "name": "Sketchfab_model"
    },
    {
      "children": [
        2
      ],
      "name": "root"
    },
    {
      "children": [
        3,
        5,
        7,
        9,
        11,
        13
      ],
      "matrix": [
        1.0,
        0.0,
        0.0,
        0.0,
        0.0,
        2.220446049250313e-16,
        1.0,
        0.0,
        0.0,
        -1.0,
        2.220446049250313e-16,
        0.0,
        0.0,
        0.0,
        0.0,
        1.0
      ],
      "name": "GLTF_SceneRootNode"
    },
    {
      "children": [
        4
      ],
      "matrix": [
        1.0,
        0.0,
        0.0,
        0.0,
        0.0,
        1.0,
        0.0,
        0.0,
        0.0,
        0.0,
        1.0,
        0.0,
        0.0,
        1.0254769325256348,
        1.0254260301589966,
        1.0
      ],
      "name": "Cube_0"
    },
    {
      "mesh": 0,
      "name": "Object_4"
    },
    {
      "children": [
        6
      ],
      "matrix": [
        0.06522800773382187,
        0.0,
        0.0,
        0.0,
        0.0,
        0.05188414454460144,
        0.0,
        0.0,
        0.0,
        0.0,
        1.2463182210922241,
        0.0,
        -0.1800878643989563,
        1.148040771484375,
        1.0254260301589966,
        1.0
      ],
      "name": "Cube.001_1"
    },
    {
      "mesh": 1,
      "name": "Object_6"
    },
    {
      "children": [
        8
      ],
      "matrix": [
        0.049742866307497025,
        0.0,
        0.0,
        0.0,
        0.0,
        0.049742866307497025,
        0.0,
        0.0,
        0.0,
        0.0,
        2.0412423610687256,
        0.0,
        0.30431240797042847,
        0.8815208077430725,
        0.24021461606025696,
        1.0
      ],
      "name": "Cube.002_2"
    },
    {
      "mesh": 2,
      "name": "Object_8"
    },
    {
      "children": [
        10
      ],
      "matrix": [
        0.049742866307497025,
        0.0,
        0.0,
        0.0,
        0.0,
        0.049742866307497025,
        0.0,
        0.0,
        0.0,
        0.0,
        2.0412423610687256,
        0.0,
        0.4241430163383484,
        0.7040562629699707,
        0.24021460115909576,
        1.0
      ],
      "name": "Cube.003_3"
    },
    {
      "mesh": 3,
      "name": "Object_10"
    },
    {
      "children": [
        12
      ],
      "matrix": [
        0.049742866307497025,
        0.0,
        0.0,
        0.0,
        0.0,
        0.049742866307497025,
        0.0,
        0.0,
        0.0,
        0.0,
        2.0412423610687256,
        0.0,
        -0.35876598954200745,
        0.7728807926177979,
        0.24021457135677338,
        1.0
      ],
      "name": "Cube.004_4"
    },
    {
      "mesh": 4,
      "name": "Object_12"
    },
    {
      "children": [
        14
      ],
      "matrix": [
        0.049742866307497025,
        0.0,
        0.0,
        0.0,
        0.0,
        0.049742866307497025,
        0.0,
        0.0,
        0.0,
        0.0,
        2.0412423610687256,
        0.0,
        -0.4930530786514282,
        0.40724140405654907,
        0.24021455645561218,
        1.0
      ],
      "name": "Cube.005_5"
    },
    {
      "mesh": 5,
      "name": "Object_14"
    }
  ],
  "samplers": [
    {
      "magFilter": 9729,
      "minFilter": 9987,
      "wrapS": 33648,
      "wrapT": 33648
    },
    {
      "magFilter": 9729,
      "minFilter": 9987,
      "wrapS": 10497,
      "wrapT": 10497
    }
  ],
  "scene": 0,
  "scenes": [
    {
      "name": "Sketchfab_Scene",
      "nodes": [
        0
      ]
    }
  ],
  "textures": [
    {
      "sampler": 0,
      "source": 0
    },
    {
      "sampler": 1,
      "source": 1
    },
    {
      "sampler": 1,
      "source": 2
    },
    {
      "sampler": 1,
      "source": 0
    },
    {
      "sampler": 1,
      "source": 3
    }
  ]
}
