{
  "accessors": [
    {
      "bufferView": 2,
      "componentType": 5126,
      "count": 1037,
      "max": [
        0.5118139982223511,
        0.8077800273895264,
        0.5173559784889221
      ],
      "min": [
        -0.5118139982223511,
        -0.997530996799469,
        -0.5886170268058777
      ],
      "type": "VEC3"
    },
    {
      "bufferView": 2,
      "byteOffset": 12444,
      "componentType": 5126,
      "count": 1037,
      "max": [
        1.0,
        0.02620750293135643,
        0.9999170899391174
      ],
      "min": [
        -1.0,
        -1.0,
        -1.0
      ],
      "type": "VEC3"
    },
    {
      "bufferView": 3,
      "componentType": 5126,
      "count": 1037,
      "max": [
        1.0,
        0.7394859194755554,
        1.0,
        1.0
      ],
      "min": [
        -1.0,
        -0.7394767999649048,
        -1.0,
        1.0
      ],
      "type": "VEC4"
    },
    {
      "bufferView": 1,
      "componentType": 5126,
      "count": 1037,
      "max": [
        0.9647960066795349,
        0.9920899868011475
      ],
      "min": [
        0.007923419587314129,
        0.023763500154018402
      ],
      "type": "VEC2"
    },
    {
      "bufferView": 0,
      "componentType": 5125,
      "count": 2796,
      "type": "SCALAR"
    },
    {
      "bufferView": 2,
      "byteOffset": 24888,
      "componentType": 5126,
      "count": 208,
      "max": [
        0.2719399929046631,
        0.7726420164108276,
        0.6888939738273621
      ],
      "min": [
        -0.2719399929046631,
        0.6640830039978027,
        0.49831900000572205
      ],
      "type": "VEC3"
    },
    {
      "bufferView": 2,
      "byteOffset": 27384,
      "componentType": 5126,
      "count": 208,
      "max": [
        0.9997780919075012,
        1.0,
        0.9513588547706604
      ],
      "min": [
        -0.9997780919075012,
        -0.9902862310409546,
        -0.0002515251107979566
      ],
      "type": "VEC3"
    },
    {
      "bufferView": 3,
      "byteOffset": 16592,
      "componentType": 5126,
      "count": 208,
      "max": [
        1.0,
        0.7349810600280762,
        1.0,
        1.0
      ],
      "min": [
        -0.0005478050443343818,
        -0.7350418567657471,
        -1.0,
        1.0
      ],
      "type": "VEC4"
    },
    {
      "bufferView": 1,
      "byteOffset": 8296,
      "componentType": 5126,
      "count": 208,
      "max": [
        0.9790120124816895,
        0.7532370090484619
      ],
      "min": [
        0.750918984413147,
        0.10971699655056
      ],
      "type": "VEC2"
    },
    {
      "bufferView": 0,
      "byteOffset": 11184,
      "componentType": 5125,
      "count": 468,
      "type": "SCALAR"
    },
    {
      "bufferView": 2,
      "byteOffset": 29880,
      "componentType": 5126,
      "count": 368,
      "max": [
        0.3336760103702545,
        0.9180369973182678,
        -0.451200008392334
      ],
      "min": [
        -0.3336760103702545,
        0.8395829796791077,
        -0.6630669832229614
      ],
      "type": "VEC3"
    },
    {
      "bufferView": 2,
      "byteOffset": 34296,
      "componentType": 5126,
      "count": 368,
      "max": [
        1.0,
        1.0,
        1.0
      ],
      "min": [
        -1.0,
        -1.0,
        -1.0
      ],
      "type": "VEC3"
    },
    {
      "bufferView": 3,
      "byteOffset": 19920,
      "componentType": 5126,
      "count": 368,
      "max": [
        1.0,
        0.7071078419685364,
        1.0,
        1.0
      ],
      "min": [
        -1.0,
        -0.7071077823638916,
        -1.0,
        1.0
      ],
      "type": "VEC4"
    },
    {
      "bufferView": 1,
      "byteOffset": 9960,
      "componentType": 5126,
      "count": 368,
      "max": [
        0.9774799942970276,
        0.9920899868011475
      ],
      "min": [
        0.11826200038194656,
        0.027438800781965256
      ],
      "type": "VEC2"
    },
    {
      "bufferView": 0,
      "byteOffset": 13056,
      "componentType": 5125,
      "count": 840,
      "type": "SCALAR"
    },
    {
      "bufferView": 2,
      "byteOffset": 38712,
      "componentType": 5126,
      "count": 1184,
      "max": [
        0.5635460019111633,
        -0.6507260203361511,
        -0.19692499935626984
      ],
      "min": [
        -0.5635460019111633,
        -1.0,
        -0.5408920049667358
      ],
      "type": "VEC3"
    },
    {
      "bufferView": 2,
      "byteOffset": 52920,
      "componentType": 5126,
      "count": 1184,
      "max": [
        1.0,
        1.0,
        0.9848077893257141
      ],
      "min": [
        -1.0,
        -1.0,
        -0.9848077893257141
      ],
      "type": "VEC3"
    },
    {
      "bufferView": 3,
      "byteOffset": 25808,
      "componentType": 5126,
      "count": 1184,
      "max": [
        0.7016741037368774,
        0.9925493597984314,
        1.0,
        1.0
      ],
      "min": [
        -0.7016741037368774,
        -1.0,
        -1.0,
        1.0
      ],
      "type": "VEC4"
    },
    {
      "bufferView": 1,
      "byteOffset": 12904,
      "componentType": 5126,
      "count": 1184,
      "max": [
        0.9883540272712708,
        0.9920899868011475
      ],
      "min": [
        0.007923419587314129,
        0.009373899549245834
      ],
      "type": "VEC2"
    },
    {
      "bufferView": 0,
      "byteOffset": 16416,
      "componentType": 5125,
      "count": 3240,
      "type": "SCALAR"
    },
    {
      "bufferView": 2,
      "byteOffset": 67128,
      "componentType": 5126,
      "count": 124,
      "max": [
        0.5329819917678833,
        0.8135759830474854,
        0.028075499460101128
      ],
      "min": [
        -0.5329819917678833,
        0.5820779800415039,
        0.00301763997413218
      ],
      "type": "VEC3"
    },
    {
      "bufferView": 2,
      "byteOffset": 68616,
      "componentType": 5126,
      "count": 124,
      "max": [
        0.9996388554573059,
        0.9996388554573059,
        1.0
      ],
      "min": [
        -0.9996388554573059,
        -0.9996388554573059,
        -1.0
      ],
      "type": "VEC3"
    },
    {
      "bufferView": 3,
      "byteOffset": 44752,
      "componentType": 5126,
      "count": 124,
      "max": [
        1.0,
        0.16866295039653778,
        1.0,
        1.0
      ],
      "min": [
        -1.0,
        -0.1686629354953766,
        -1.0,
        1.0
      ],
      "type": "VEC4"
    },
    {
      "bufferView": 1,
      "byteOffset": 22376,
      "componentType": 5126,
      "count": 124,
      "max": [
        0.9861699938774109,
        0.9363030195236206
      ],
      "min": [
        0.8482210040092468,
        0.04600189998745918
      ],
      "type": "VEC2"
    },
    {
      "bufferView": 0,
      "byteOffset": 29376,
      "componentType": 5125,
      "count": 252,
      "type": "SCALAR"
    },
    {
      "bufferView": 2,
      "byteOffset": 70104,
      "componentType": 5126,
      "count": 124,
      "max": [
        0.5329819917678833,
        0.8135759830474854,
        -0.16141299903392792
      ],
      "min": [
        -0.5329819917678833,
        0.5820779800415039,
        -0.18647100031375885
      ],
      "type": "VEC3"
    },
    {
      "bufferView": 2,
      "byteOffset": 71592,
      "componentType": 5126,
      "count": 124,
      "max": [
        0.9996388554573059,
        0.9996388554573059,
        1.0
      ],
      "min": [
        -0.9996388554573059,
        -0.9996388554573059,
        -1.0
      ],
      "type": "VEC3"
    },
    {
      "bufferView": 3,
      "byteOffset": 46736,
      "componentType": 5126,
      "count": 124,
      "max": [
        1.0,
        0.16866295039653778,
        1.0,
        1.0
      ],
      "min": [
        -1.0,
        -0.16866295039653778,
        -1.0,
        1.0
      ],
      "type": "VEC4"
    },
    {
      "bufferView": 1,
      "byteOffset": 23368,
      "componentType": 5126,
      "count": 124,
      "max": [
        0.9872819781303406,
        0.9549279808998108
      ],
      "min": [
        0.8482210040092468,
        0.06584390252828598
      ],
      "type": "VEC2"
    },
    {
      "bufferView": 0,
      "byteOffset": 30384,
      "componentType": 5125,
      "count": 252,
      "type": "SCALAR"
    },
    {
      "bufferView": 2,
      "byteOffset": 73080,
      "componentType": 5126,
      "count": 160,
      "max": [
        0.4914169907569885,
        -0.772005021572113,
        -0.3164289891719818
      ],
      "min": [
        -0.4914169907569885,
        -0.8793799877166748,
        -0.42380398511886597
      ],
      "type": "VEC3"
    },
    {
      "bufferView": 2,
      "byteOffset": 75000,
      "componentType": 5126,
      "count": 160,
      "max": [
        1.0,
        0.9238797426223755,
        0.9238797426223755
      ],
      "min": [
        -1.0,
        -0.9238797426223755,
        -0.9238797426223755
      ],
      "type": "VEC3"
    },
    {
      "bufferView": 3,
      "byteOffset": 48720,
      "componentType": 5126,
      "count": 160,
      "max": [
        0.6785979866981506,
        0.9238798022270203,
        0.9238798022270203,
        1.0
      ],
      "min": [
        -0.6785979866981506,
        -0.9238798022270203,
        -1.0,
        1.0
      ],
      "type": "VEC4"
    },
    {
      "bufferView": 1,
      "byteOffset": 24360,
      "componentType": 5126,
      "count": 160,
      "max": [
        0.9477149844169617,
        0.9363030195236206
      ],
      "min": [
        0.5315939784049988,
        0.06584390252828598
      ],
      "type": "VEC2"
    },
    {
      "bufferView": 0,
      "byteOffset": 31392,
      "componentType": 5125,
      "count": 336,
      "type": "SCALAR"
    },
    {
      "bufferView": 2,
      "byteOffset": 76920,
      "componentType": 5126,
      "count": 339,
      "max": [
        0.5515509843826294,
        0.864654004573822,
        0.6983659863471985
      ],
      "min": [
        -0.5515509843826294,
        0.7670090198516846,
        -0.6154890060424805
      ],
      "type": "VEC3"
    },
    {
      "bufferView": 2,
      "byteOffset": 80988,
      "componentType": 5126,
      "count": 339,
      "max": [
        1.0,
        1.0,
        1.0
      ],
      "min": [
        -1.0,
        -1.0,
        -1.0
      ],
      "type": "VEC3"
    },
    {
      "bufferView": 3,
      "byteOffset": 51280,
      "componentType": 5126,
      "count": 339,
      "max": [
        1.0,
        0.718822181224823,
        1.0,
        1.0
      ],
      "min": [
        -1.0,
        -0.7170245051383972,
        -1.0,
        1.0
      ],
      "type": "VEC4"
    },
    {
      "bufferView": 1,
      "byteOffset": 25640,
      "componentType": 5126,
      "count": 339,
      "max": [
        0.8665720224380493,
        0.6592079997062683
      ],
      "min": [
        0.007923419587314129,
        0.05253339931368828
      ],
      "type": "VEC2"
    },
    {
      "bufferView": 0,
      "byteOffset": 32736,
      "componentType": 5125,
      "count": 876,
      "type": "SCALAR"
    },
    {
      "bufferView": 2,
      "byteOffset": 85056,
      "componentType": 5126,
      "count": 376,
      "max": [
        0.465939998626709,
        0.963890016078949,
        0.5386800169944763
      ],
      "min": [
        -0.465939998626709,
        0.8419349789619446,
        -0.5541719794273376
      ],
      "type": "VEC3"
    },
    {
      "bufferView": 2,
      "byteOffset": 89568,
      "componentType": 5126,
      "count": 376,
      "max": [
        0.9999883770942688,
        0.9999963641166687,
        0.9998712539672852
      ],
      "min": [
        -0.9999887347221375,
        -1.0,
        -0.9998779892921448
      ],
      "type": "VEC3"
    },
    {
      "bufferView": 3,
      "byteOffset": 56704,
      "componentType": 5126,
      "count": 376,
      "max": [
        1.0,
        0.993659257888794,
        1.0,
        1.0
      ],
      "min": [
        -1.0,
        -0.9895989298820496,
        -1.0,
        -1.0
      ],
      "type": "VEC4"
    },
    {
      "bufferView": 1,
      "byteOffset": 28352,
      "componentType": 5126,
      "count": 376,
      "max": [
        0.9690330028533936,
        0.9920899868011475
      ],
      "min": [
        0.007923419587314129,
        0.007910249754786491
      ],
      "type": "VEC2"
    },
    {
      "bufferView": 0,
      "byteOffset": 36240,
      "componentType": 5125,
      "count": 1212,
      "type": "SCALAR"
    },
    {
      "bufferView": 2,
      "byteOffset": 94080,
      "componentType": 5126,
      "count": 602,
      "max": [
        0.497624009847641,
        1.0,
        -0.5778610110282898
      ],
      "min": [
        -0.497624009847641,
        0.8794959783554077,
        -0.6983659863471985
      ],
      "type": "VEC3"
    },
    {
      "bufferView": 2,
      "byteOffset": 101304,
      "componentType": 5126,
      "count": 602,
      "max": [
        1.0,
        1.0,
        1.0
      ],
      "min": [
        -1.0,
        -1.0,
        -1.0
      ],
      "type": "VEC3"
    },
    {
      "bufferView": 3,
      "byteOffset": 62720,
      "componentType": 5126,
      "count": 602,
      "max": [
        0.6947470903396606,
        1.0,
        1.0,
        1.0
      ],
      "min": [
        -0.6947470903396606,
        -1.0,
        -1.0,
        1.0
      ],
      "type": "VEC4"
    },
    {
      "bufferView": 1,
      "byteOffset": 31360,
      "componentType": 5126,
      "count": 602,
      "max": [
        0.9920769929885864,
        0.9920899868011475
      ],
      "min": [
        0.007923419587314129,
        0.009104370139539242
      ],
      "type": "VEC2"
    },
    {
      "bufferView": 0,
      "byteOffset": 41088,
      "componentType": 5125,
      "count": 1584,
      "type": "SCALAR"
    }
  ],
  "asset": {
    "extras": {
      "author": "Pandurus (https://sketchfab.com/ChubbyPanda)",
      "license": "CC-BY-4.0 (http://creativecommons.org/licenses/by/4.0/)",
      "source": "https://sketchfab.com/3d-models/public-bin-free-f4440ba1c72f42bb887110ada7dcf3ca",
      "title": "Public Bin ( Free )"
    },
    "generator": "Sketchfab-12.65.0",
    "version": "2.0"
  },
  "bufferViews": [
    {
      "buffer": 0,
      "byteLength": 47424,
      "name": "floatBufferViews",
      "target": 34963
    },
    {
      "buffer": 0,
      "byteLength": 36176,
      "byteOffset": 47424,
      "byteStride": 8,
      "name": "floatBufferViews",
      "target": 34962
    },
    {
      "buffer": 0,
      "byteLength": 108528,
      "byteOffset": 83600,
      "byteStride": 12,
      "name": "floatBufferViews",
      "target": 34962
    },
    {
      "buffer": 0,
      "byteLength": 72352,
      "byteOffset": 192128,
      "byteStride": 16,
      "name": "floatBufferViews",
      "target": 34962
    }
  ],
  "buffers": [
    {
      "byteLength": 264480,
      "uri": "scene.bin"
    }
  ],
  "images": [
    {
      "uri": "textures/1001_baseColor.jpeg"
    },
    {
      "uri": "textures/1001_metallicRoughness.png"
    },
    {
      "uri": "textures/1001_normal.png"
    }
  ],
  "materials": [
    {
      "doubleSided": true,
      "name": "1001",
      "normalTexture": {
        "index": 2
      },
      "occlusionTexture": {
        "index": 1
      },
      "pbrMetallicRoughness": {
        "baseColorTexture": {
          "index": 0
        },
        "metallicRoughnessTexture": {
          "index": 1
        }
      }
    }
  ],
  "meshes": [
    {
      "name": "defaultMaterial",
      "primitives": [
        {
          "attributes": {
            "NORMAL": 1,
            "POSITION": 0,
            "TANGENT": 2,
            "TEXCOORD_0": 3
          },
          "indices": 4,
          "material": 0,
          "mode": 4
        }
      ]
    },
    {
      "name": "defaultMaterial",
      "primitives": [
        {
          "attributes": {
            "NORMAL": 6,
            "POSITION": 5,
            "TANGENT": 7,
            "TEXCOORD_0": 8
          },
          "indices": 9,
          "material": 0,
          "mode": 4
        }
      ]
    },
    {
      "name": "defaultMaterial",
      "primitives": [
        {
          "attributes": {
            "NORMAL": 11,
            "POSITION": 10,
            "TANGENT": 12,
            "TEXCOORD_0": 13
          },
          "indices": 14,
          "material": 0,
          "mode": 4
        }
      ]
    },
    {
      "name": "defaultMaterial",
      "primitives": [
        {
          "attributes": {
            "NORMAL": 16,
            "POSITION": 15,
            "TANGENT": 17,
            "TEXCOORD_0": 18
          },
          "indices": 19,
          "material": 0,
          "mode": 4
        }
      ]
    },
    {
      "name": "defaultMaterial",
      "primitives": [
        {
          "attributes": {
            "NORMAL": 21,
            "POSITION": 20,
            "TANGENT": 22,
            "TEXCOORD_0": 23
          },
          "indices": 24,
          "material": 0,
          "mode": 4
        }
      ]
    },
    {
      "name": "defaultMaterial",
      "primitives": [
        {
          "attributes": {
            "NORMAL": 26,
            "POSITION": 25,
            "TANGENT": 27,
            "TEXCOORD_0": 28
          },
          "indices": 29,
          "material": 0,
          "mode": 4
        }
      ]
    },
    {
      "name": "defaultMaterial",
      "primitives": [
        {
          "attributes": {
            "NORMAL": 31,
            "POSITION": 30,
            "TANGENT": 32,
            "TEXCOORD_0": 33
          },
          "indices": 34,
          "material": 0,
          "mode": 4
        }
      ]
    },
    {
      "name": "defaultMaterial",
      "primitives": [
        {
          "attributes": {
            "NORMAL": 36,
            "POSITION": 35,
            "TANGENT": 37,
            "TEXCOORD_0": 38
          },
          "indices": 39,
          "material": 0,
          "mode": 4
        }
      ]
    },
    {
      "name": "defaultMaterial",
      "primitives": [
        {
          "attributes": {
            "NORMAL": 41,
            "POSITION": 40,
            "TANGENT": 42,
            "TEXCOORD_0": 43
          },
          "indices": 44,
          "material": 0,
          "mode": 4
        }
      ]
    },
    {
      "name": "defaultMaterial",
      "primitives": [
        {
          "attributes": {
            "NORMAL": 46,
            "POSITION": 45,
            "TANGENT": 47,
            "TEXCOORD_0": 48
          },
          "indices": 49,
          "material": 0,
          "mode": 4
        }
      ]
    }
  ],
  "nodes": [
    {
      "children": [
        1
      ],
      "matrix": [
        1.0,
        0.0,
        0.0,
        0.0,
        0.0,
        2.220446049250313e-16,
        -1.0,
        0.0,
        0.0,
        1.0,
        2.220446049250313e-16,
        0.0,
        0.0,
        0.0,
        0.0,
        1.0
      ],
      "name": "Sketchfab_model"
    },
    {
      "children": [
        2,
        4,
        6,
        8,
        10,
        12,
        14,
        16,
        18,
        20
      ],
      "matrix": [
        1.0,
        0.0,
        0.0,
        0.0,
        0.0,
        -4.371139006309477e-08,
        0.999999999999999,
        0.0,
        0.0,
        -0.999999999999999,
        -4.371139006309477e-08,
        0.0,
        0.0,
        0.0,
        0.0,
        1.0
      ],
      "name": "Collada visual scene group"
    },
    {
      "children": [
        3
      ],
      "name": "Cube_3_2"
    },
    {
      "mesh": 0,
      "name": "defaultMaterial"
    },
    {
      "children": [
        5
      ],
      "name": "Cube_2_3"
    },
    {
      "mesh": 1,
      "name": "defaultMaterial"
    },
    {
      "children": [
        7
      ],
      "name": "Cube_2_2"
    },
    {
      "mesh": 2,
      "name": "defaultMaterial"
    },
    {
      "children": [
        9
      ],
      "name": "Cylinder_1_2"
    },
    {
      "mesh": 3,
      "name": "defaultMaterial"
    },
    {
      "children": [
        11
      ],
      "name": "Cube_2"
    },
    {
      "mesh": 4,
      "name": "defaultMaterial"
    },
    {
      "children": [
        13
      ],
      "name": "Cube_3"
    },
    {
      "mesh": 5,
      "name": "defaultMaterial"
    },
    {
      "children": [
        15
      ],
      "name": "Cylinder_1"
    },
    {
      "mesh": 6,
      "name": "defaultMaterial"
    },
    {
      "children": [
        17
      ],
      "name": "Cube_1"
    },
    {
      "mesh": 7,
      "name": "defaultMaterial"
    },
    {
      "children": [
        19
      ],
      "name": "Cube"
    },
    {
      "mesh": 8,
      "name": "defaultMaterial"
    },
    {
      "children": [
        21
      ],
      "name": "Cylinder"
    },
    {
      "mesh": 9,
      "name": "defaultMaterial"
    }
  ],
  "samplers": [
    {
      "magFilter": 9729,
      "minFilter": 9987,
      "wrapS": 10497,
      "wrapT": 10497
    }
  ],
  "scene": 0,
  "scenes": [
    {
      "name": "Sketchfab_Scene",
      "nodes": [
        0
      ]
    }
  ],
  "textures": [
    {
      "sampler": 0,
      "source": 0
    },
    {
      "sampler": 0,
      "source": 1
    },
    {
      "sampler": 0,
      "source": 2
    }
  ]
}
