{
  "accessors": [
    {
      "bufferView": 2,
      "componentType": 5126,
      "count": 7200,
      "max": [
        0.0003355321823619306,
        0.22708727419376373,
        0.2590537369251251
      ],
      "min": [
        -0.11127275973558426,
        -0.24012570083141327,
        -0.24030742049217224
      ],
      "type": "VEC3"
    },
    {
      "bufferView": 2,
      "byteOffset": 86400,
      "componentType": 5126,
      "count": 7200,
      "max": [
        0.999949038028717,
        0.8646517395973206,
        0.838074266910553
      ],
      "min": [
        -0.9998242259025574,
        -0.812911868095398,
        -0.8353357911109924
      ],
      "type": "VEC3"
    },
    {
      "bufferView": 3,
      "componentType": 5126,
      "count": 7200,
      "max": [
        0.8537688851356506,
        0.9999955892562866,
        0.9998920559883118,
        1.0
      ],
      "min": [
        -0.8397859930992126,
        -0.9999833106994629,
        -0.999950647354126,
        -1.0
      ],
      "type": "VEC4"
    },
    {
      "bufferView": 1,
      "componentType": 5126,
      "count": 7200,
      "max": [
        0.9927226305007935,
        0.9938623905181885
      ],
      "min": [
        0.0009770040633156896,
        0.0009765625
      ],
      "type": "VEC2"
    },
    {
      "bufferView": 1,
      "byteOffset": 57600,
      "componentType": 5126,
      "count": 7200,
      "max": [
        0.9927226305007935,
        0.9938623905181885
      ],
      "min": [
        0.0009770040633156896,
        0.0009765625
      ],
      "type": "VEC2"
    },
    {
      "bufferView": 1,
      "byteOffset": 115200,
      "componentType": 5126,
      "count": 7200,
      "max": [
        0.9927226305007935,
        0.9938623905181885
      ],
      "min": [
        0.0009770040633156896,
        0.0009765625
      ],
      "type": "VEC2"
    },
    {
      "bufferView": 1,
      "byteOffset": 172800,
      "componentType": 5126,
      "count": 7200,
      "max": [
        0.9927226305007935,
        0.9938623905181885
      ],
      "min": [
        0.0009770040633156896,
        0.0009765625
      ],
      "type": "VEC2"
    },
    {
      "bufferView": 0,
      "componentType": 5125,
      "count": 25200,
      "type": "SCALAR"
    },
    {
      "bufferView": 2,
      "byteOffset": 172800,
      "componentType": 5126,
      "count": 462,
      "max": [
        0.04183931276202202,
        1.3509656190872192,
        0.048813410103321075
      ],
      "min": [
        -0.04183931648731232,
        -0.035810455679893494,
        -0.6385351419448853
      ],
      "type": "VEC3"
    },
    {
      "bufferView": 2,
      "byteOffset": 178344,
      "componentType": 5126,
      "count": 462,
      "max": [
        1.0,
        0.9983446598052979,
        0.9069156050682068
      ],
      "min": [
        -1.0,
        -0.9947928190231323,
        -0.9953747391700745
      ],
      "type": "VEC3"
    },
    {
      "bufferView": 3,
      "byteOffset": 115200,
      "componentType": 5126,
      "count": 462,
      "max": [
        1.0,
        0.8697658181190491,
        0.9083499908447266,
        1.0
      ],
      "min": [
        -1.0,
        -0.5778136253356934,
        -0.9947928786277771,
        1.0
      ],
      "type": "VEC4"
    },
    {
      "bufferView": 1,
      "byteOffset": 230400,
      "componentType": 5126,
      "count": 462,
      "max": [
        0.9990234375,
        0.9852343797683716
      ],
      "min": [
        0.0009765625,
        0.0014122261200100183
      ],
      "type": "VEC2"
    },
    {
      "bufferView": 1,
      "byteOffset": 234096,
      "componentType": 5126,
      "count": 462,
      "max": [
        0.9990234375,
        0.9852343797683716
      ],
      "min": [
        0.0009765625,
        0.0014122261200100183
      ],
      "type": "VEC2"
    },
    {
      "bufferView": 1,
      "byteOffset": 237792,
      "componentType": 5126,
      "count": 462,
      "max": [
        0.9990234375,
        0.9852343797683716
      ],
      "min": [
        0.0009765625,
        0.0014122261200100183
      ],
      "type": "VEC2"
    },
    {
      "bufferView": 1,
      "byteOffset": 241488,
      "componentType": 5126,
      "count": 462,
      "max": [
        0.9990234375,
        0.9852343797683716
      ],
      "min": [
        0.0009765625,
        0.0014122261200100183
      ],
      "type": "VEC2"
    },
    {
      "bufferView": 0,
      "byteOffset": 100800,
      "componentType": 5125,
      "count": 2016,
      "type": "SCALAR"
    },
    {
      "bufferView": 2,
      "byteOffset": 183888,
      "componentType": 5126,
      "count": 7200,
      "max": [
        0.0003355321823619306,
        0.22708727419376373,
        0.2590537369251251
      ],
      "min": [
        -0.11127275973558426,
        -0.24012570083141327,
        -0.24030742049217224
      ],
      "type": "VEC3"
    },
    {
      "bufferView": 2,
      "byteOffset": 270288,
      "componentType": 5126,
      "count": 7200,
      "max": [
        0.999949038028717,
        0.8646517395973206,
        0.838074266910553
      ],
      "min": [
        -0.9998242259025574,
        -0.812911868095398,
        -0.8353357911109924
      ],
      "type": "VEC3"
    },
    {
      "bufferView": 3,
      "byteOffset": 122592,
      "componentType": 5126,
      "count": 7200,
      "max": [
        0.8537688851356506,
        0.9999955892562866,
        0.9998920559883118,
        1.0
      ],
      "min": [
        -0.8397859930992126,
        -0.9999833106994629,
        -0.999950647354126,
        -1.0
      ],
      "type": "VEC4"
    },
    {
      "bufferView": 1,
      "byteOffset": 245184,
      "componentType": 5126,
      "count": 7200,
      "max": [
        0.9927226305007935,
        0.9938623905181885
      ],
      "min": [
        0.0009770040633156896,
        0.0009765625
      ],
      "type": "VEC2"
    },
    {
      "bufferView": 1,
      "byteOffset": 302784,
      "componentType": 5126,
      "count": 7200,
      "max": [
        0.9927226305007935,
        0.9938623905181885
      ],
      "min": [
        0.0009770040633156896,
        0.0009765625
      ],
      "type": "VEC2"
    },
    {
      "bufferView": 1,
      "byteOffset": 360384,
      "componentType": 5126,
      "count": 7200,
      "max": [
        0.9927226305007935,
        0.9938623905181885
      ],
      "min": [
        0.0009770040633156896,
        0.0009765625
      ],
      "type": "VEC2"
    },
    {
      "bufferView": 1,
      "byteOffset": 417984,
      "componentType": 5126,
      "count": 7200,
      "max": [
        0.9927226305007935,
        0.9938623905181885
      ],
      "min": [
        0.0009770040633156896,
        0.0009765625
      ],
      "type": "VEC2"
    },
    {
      "bufferView": 0,
      "byteOffset": 108864,
      "componentType": 5125,
      "count": 25200,
      "type": "SCALAR"
    },
    {
      "bufferView": 2,
      "byteOffset": 356688,
      "componentType": 5126,
      "count": 462,
      "max": [
        0.04183931276202202,
        1.3509656190872192,
        0.048813410103321075
      ],
      "min": [
        -0.04183931648731232,
        -0.035810455679893494,
        -0.6385351419448853
      ],
      "type": "VEC3"
    },
    {
      "bufferView": 2,
      "byteOffset": 362232,
      "componentType": 5126,
      "count": 462,
      "max": [
        1.0,
        0.9983446598052979,
        0.9069156050682068
      ],
      "min": [
        -1.0,
        -0.9947928190231323,
        -0.9953747391700745
      ],
      "type": "VEC3"
    },
    {
      "bufferView": 3,
      "byteOffset": 237792,
      "componentType": 5126,
      "count": 462,
      "max": [
        1.0,
        0.8697658181190491,
        0.9083499908447266,
        1.0
      ],
      "min": [
        -1.0,
        -0.5778136253356934,
        -0.9947928786277771,
        1.0
      ],
      "type": "VEC4"
    },
    {
      "bufferView": 1,
      "byteOffset": 475584,
      "componentType": 5126,
      "count": 462,
      "max": [
        0.9990234375,
        0.9852343797683716
      ],
      "min": [
        0.0009765625,
        0.0014122261200100183
      ],
      "type": "VEC2"
    },
    {
      "bufferView": 1,
      "byteOffset": 479280,
      "componentType": 5126,
      "count": 462,
      "max": [
        0.9990234375,
        0.9852343797683716
      ],
      "min": [
        0.0009765625,
        0.0014122261200100183
      ],
      "type": "VEC2"
    },
    {
      "bufferView": 1,
      "byteOffset": 482976,
      "componentType": 5126,
      "count": 462,
      "max": [
        0.9990234375,
        0.9852343797683716
      ],
      "min": [
        0.0009765625,
        0.0014122261200100183
      ],
      "type": "VEC2"
    },
    {
      "bufferView": 1,
      "byteOffset": 486672,
      "componentType": 5126,
      "count": 462,
      "max": [
        0.9990234375,
        0.9852343797683716
      ],
      "min": [
        0.0009765625,
        0.0014122261200100183
      ],
      "type": "VEC2"
    },
    {
      "bufferView": 0,
      "byteOffset": 209664,
      "componentType": 5125,
      "count": 2016,
      "type": "SCALAR"
    }
  ],
  "asset": {
    "extras": {
      "author": "Sousinho (https://sketchfab.com/sousinho)",
      "license": "CC-BY-4.0 (http://creativecommons.org/licenses/by/4.0/)",
      "source": "https://sketchfab.com/3d-models/pair-of-mops-56daf9708906449ea4f8576790ee476f",
      "title": "Pair of mops"
    },
    "generator": "Sketchfab-14.64.0",
    "version": "2.0"
  },
  "bufferViews": [
    {
      "buffer": 0,
      "byteLength": 217728,
      "name": "floatBufferViews",
      "target": 34963
    },
    {
      "buffer": 0,
      "byteLength": 490368,
      "byteOffset": 217728,
      "byteStride": 8,
      "name": "floatBufferViews",
      "target": 34962
    },
    {
      "buffer": 0,
      "byteLength": 367776,
      "byteOffset": 708096,
      "byteStride": 12,
      "name": "floatBufferViews",
      "target": 34962
    },
    {
      "buffer": 0,
      "byteLength": 245184,
      "byteOffset": 1075872,
      "byteStride": 16,
      "name": "floatBufferViews",
      "target": 34962
    }
  ],
  "buffers": [
    {
      "byteLength": 1321056,
      "uri": "scene.bin"
    }
  ],
  "images": [
    {
      "uri": "textures/T_mop_clean_baseColor.png"
    },
    {
      "uri": "textures/T_mop_clean_metallicRoughness.png"
    },
    {
      "uri": "textures/T_mop_clean_normal.png"
    },
    {
      "uri": "textures/T_mop_dirty_baseColor.png"
    },
    {
      "uri": "textures/T_mop_dirty_metallicRoughness.png"
    },
    {
      "uri": "textures/T_mop_dirty_normal.png"
    }
  ],
  "materials": [
    {
      "doubleSided": true,
      "name": "T_mop_clean",
      "normalTexture": {
        "index": 2
      },
      "pbrMetallicRoughness": {
        "baseColorTexture": {
          "index": 0
        },
        "metallicRoughnessTexture": {
          "index": 1
        }
      }
    },
    {
      "doubleSided": true,
      "name": "T_mop_dirty",
      "normalTexture": {
        "index": 5
      },
      "pbrMetallicRoughness": {
        "baseColorTexture": {
          "index": 3
        },
        "metallicRoughnessTexture": {
          "index": 4
        }
      }
    }
  ],
  "meshes": [
    {
      "name": "Object_0",
      "primitives": [
        {
          "attributes": {
            "NORMAL": 1,
            "POSITION": 0,
            "TANGENT": 2,
            "TEXCOORD_0": 3,
            "TEXCOORD_1": 4,
            "TEXCOORD_2": 5,
            "TEXCOORD_3": 6
          },
          "indices": 7,
          "material": 0,
          "mode": 4
        }
      ]
    },
    {
      "name": "Object_1",
      "primitives": [
        {
          "attributes": {
            "NORMAL": 9,
            "POSITION": 8,
            "TANGENT": 10,
            "TEXCOORD_0": 11,
            "TEXCOORD_1": 12,
            "TEXCOORD_2": 13,
            "TEXCOORD_3": 14
          },
          "indices": 15,
          "material": 0,
          "mode": 4
        }
      ]
    },
    {
      "name": "Object_2",
      "primitives": [
        {
          "attributes": {
            "NORMAL": 17,
            "POSITION": 16,
            "TANGENT": 18,
            "TEXCOORD_0": 19,
            "TEXCOORD_1": 20,
            "TEXCOORD_2": 21,
            "TEXCOORD_3": 22
          },
          "indices": 23,
          "material": 1,
          "mode": 4
        }
      ]
    },
    {
      "name": "Object_3",
      "primitives": [
        {
          "attributes": {
            "NORMAL": 25,
            "POSITION": 24,
            "TANGENT": 26,
            "TEXCOORD_0": 27,
            "TEXCOORD_1": 28,
            "TEXCOORD_2": 29,
            "TEXCOORD_3": 30
          },
          "indices": 31,
          "material": 1,
          "mode": 4
        }
      ]
    }
  ],
  "nodes": [
    {
      "children": [
        1
      ],
      "matrix": [
        1.0,
        0.0,
        0.0,
        0.0,
        0.0,
        2.220446049250313e-16,
        -1.0,
        0.0,
        0.0,
        1.0,
        2.220446049250313e-16,
        0.0,
        0.0,
        0.0,
        0.0,
        1.0
      ],
      "name": "Sketchfab_model"
    },
    {
      "children": [
        2
      ],
      "name": "root"
    },
    {
      "children": [
        3,
        5,
        7,
        9
      ],
      "matrix": [
        1.0,
        0.0,
        0.0,
        0.0,
        0.0,
        2.220446049250313e-16,
        1.0,
        0.0,
        0.0,
        -1.0,
        2.220446049250313e-16,
        0.0,
        0.0,
        0.0,
        0.0,
        1.0
      ],
      "name": "GLTF_SceneRootNode"
    },
    {
      "children": [
        4
      ],
      "matrix": [
        0.0021643440872827213,
        0.9988944375039068,
        0.046959752325001325,
        0.0,
        -0.04597353360335382,
        0.047009602457203536,
        -0.9978359241302334,
        0.0,
        -0.9989403134435475,
        7.545309509415787e-07,
        0.046024451943912914,
        0.0,
        0.000203496718313545,
        0.10344859212636948,
        -0.2395794540643692,
        1.0
      ],
      "name": "SM_Mop_1_2"
    },
    {
      "mesh": 0,
      "name": "Object_4"
    },
    {
      "children": [
        6
      ],
      "matrix": [
        0.972295733147968,
        -0.23375415996780743,
        -8.884712687784457e-10,
        0.0,
        0.21185322117650604,
        0.8811992165463642,
        0.4226182123799354,
        0.0,
        -0.09878876443904806,
        -0.4109098848358585,
        0.9063078100539506,
        0.0,
        -0.0005007135332562029,
        0.10966244339942932,
        -0.233733668923378,
        1.0
      ],
      "name": "SM_Mop_1.001_3"
    },
    {
      "mesh": 1,
      "name": "Object_6"
    },
    {
      "children": [
        8
      ],
      "matrix": [
        0.0021643440872827213,
        0.9988944375039068,
        0.046959752325001325,
        0.0,
        -0.04597353360335382,
        0.047009602457203536,
        -0.9978359241302334,
        0.0,
        -0.9989403134435475,
        7.545309509415787e-07,
        0.046024451943912914,
        0.0,
        0.000203496718313545,
        0.10344859212636948,
        0.26880836486816406,
        1.0
      ],
      "name": "SM_Mop_1.002_4"
    },
    {
      "mesh": 2,
      "name": "Object_8"
    },
    {
      "children": [
        10
      ],
      "matrix": [
        0.972295733147968,
        -0.23375415996780743,
        -8.884712687784457e-10,
        0.0,
        0.21185322117650604,
        0.8811992165463642,
        0.4226182123799354,
        0.0,
        -0.09878876443904806,
        -0.4109098848358585,
        0.9063078100539506,
        0.0,
        -0.0005007135332562029,
        0.10966244339942932,
        0.2746541500091553,
        1.0
      ],
      "name": "SM_Mop_1.003_5"
    },
    {
      "mesh": 3,
      "name": "Object_10"
    }
  ],
  "samplers": [
    {
      "magFilter": 9729,
      "minFilter": 9987,
      "wrapS": 10497,
      "wrapT": 10497
    }
  ],
  "scene": 0,
  "scenes": [
    {
      "name": "Sketchfab_Scene",
      "nodes": [
        0
      ]
    }
  ],
  "textures": [
    {
      "sampler": 0,
      "source": 0
    },
    {
      "sampler": 0,
      "source": 1
    },
    {
      "sampler": 0,
      "source": 2
    },
    {
      "sampler": 0,
      "source": 3
    },
    {
      "sampler": 0,
      "source": 4
    },
    {
      "sampler": 0,
      "source": 5
    }
  ]
}
